<svg xmlns="http://www.w3.org/2000/svg" viewBox="0 0 199 199.7">
<style>.st0{fill-rule:evenodd;clip-rule:evenodd;fill:#141E64;} .st1{fill-rule:evenodd;clip-rule:evenodd;fill:#FFB428;} .st2{fill-rule:evenodd;clip-rule:evenodd;fill:#00C8B4;}</style>
<path class="st0" d="M66 66.4h18.8V47.7H66v18.7zm24.2 0H109V23.6H90.2v42.8zm24.1 0H133v-67h-18.8v67z"/>
<path class="st1" d="M166 150.2c0-9.1-7.4-16.5-16.5-16.5s-16.5 7.4-16.5 16.5 7.4 16.5 16.5 16.5 16.5-7.4 16.5-16.5m16.5 16.5c9.1 0 16.5-7.4 16.5-16.5s-7.4-16.5-16.5-16.5-16.5 7.4-16.5 16.5 7.4 16.5 16.5 16.5m-33 0c-9.1 0-16.5 7.4-16.5 16.5s7.4 16.5 16.5 16.5 16.5-7.4 16.5-16.5-7.4-16.5-16.5-16.5m33 0c-9.1 0-16.5 7.4-16.5 16.5s7.4 16.5 16.5 16.5 16.5-7.4 16.5-16.5-7.4-16.5-16.5-16.5"/>
<path class="st2" d="M0 66.4v37.4h61.2L0 165v34.7h34.6l61.2-61.3v61.3H133V66.4"/>
</svg>
