<?xml version="1.0" encoding="utf-8"?>
<!-- Generator: Adobe Illustrator 16.0.0, SVG Export Plug-In . SVG Version: 6.00 Build 0)  -->
<!DOCTYPE svg PUBLIC "-//W3C//DTD SVG 1.1//EN" "http://www.w3.org/Graphics/SVG/1.1/DTD/svg11.dtd">
<svg version="1.1" id="Layer_1" xmlns="http://www.w3.org/2000/svg" xmlns:xlink="http://www.w3.org/1999/xlink" x="0px" y="0px"
	 width="500px" height="500px" viewBox="0 0 500 500" enable-background="new 0 0 500 500" xml:space="preserve">
<path fill-rule="evenodd" clip-rule="evenodd" fill="#FFFFFF" d="M76.263,390.268c-21.989,0-39.815-17.826-39.815-39.815
	c0-21.99,17.826-39.815,39.815-39.815s39.815,17.825,39.815,39.815C116.078,372.441,98.252,390.268,76.263,390.268z
	 M427.737,388.895c-21.99,0-39.815-17.826-39.815-39.815c0-21.99,17.825-39.815,39.815-39.815c21.989,0,39.815,17.825,39.815,39.815
	C467.553,371.068,449.727,388.895,427.737,388.895z M252,90.965c-21.989,0-39.815-17.827-39.815-39.815S230.011,11.334,252,11.334
	c21.99,0,39.815,17.827,39.815,39.815S273.99,90.965,252,90.965z M236.091,349.263c-50.838-7.674-89.808-51.549-89.808-104.528
	c0-11.107,1.713-21.813,4.888-31.87l-52.212-30.146c-6.438,4.476-14.261,7.098-22.696,7.098c-21.989,0-39.815-17.827-39.815-39.815
	c0-21.988,17.826-39.815,39.815-39.815s39.815,17.827,39.815,39.815c0,1.354-0.067,2.692-0.2,4.01l50.268,29.022
	c19.193-26.659,50.496-44.016,85.854-44.016c35.297,0,66.553,17.298,85.756,43.88l50.347-29.069
	c-0.119-1.259-0.181-2.537-0.181-3.828c0-21.988,17.825-39.815,39.815-39.815c21.989,0,39.815,17.827,39.815,39.815
	c0,21.989-17.826,39.815-39.815,39.815c-8.501,0-16.38-2.664-22.847-7.203l-52.114,30.087c3.21,10.104,4.94,20.866,4.94,32.034
	c0,52.455-38.204,95.987-88.305,104.291v65.835c13.264,6.46,22.403,20.07,22.403,35.816c0,21.99-17.825,39.815-39.815,39.815
	c-21.989,0-39.815-17.825-39.815-39.815c0-16.333,9.835-30.37,23.907-36.511V349.263z"/>
</svg>
